<?xml version="1.0" encoding="utf-8" standalone="no"?>
<!DOCTYPE svg PUBLIC "-//W3C//DTD SVG 1.1//EN"
  "http://www.w3.org/Graphics/SVG/1.1/DTD/svg11.dtd">
<svg xmlns:xlink="http://www.w3.org/1999/xlink" width="775.44pt" height="231.84pt" viewBox="0 0 775.44 231.84" xmlns="http://www.w3.org/2000/svg" version="1.1">
 <metadata>
  <rdf:RDF xmlns:dc="http://purl.org/dc/elements/1.1/" xmlns:cc="http://creativecommons.org/ns#" xmlns:rdf="http://www.w3.org/1999/02/22-rdf-syntax-ns#">
   <cc:Work>
    <dc:type rdf:resource="http://purl.org/dc/dcmitype/StillImage"/>
    <dc:date>2022-03-06T15:26:52.839798</dc:date>
    <dc:format>image/svg+xml</dc:format>
    <dc:creator>
     <cc:Agent>
      <dc:title>Matplotlib v3.5.1, https://matplotlib.org/</dc:title>
     </cc:Agent>
    </dc:creator>
   </cc:Work>
  </rdf:RDF>
 </metadata>
 <defs>
  <style type="text/css">*{stroke-linejoin: round; stroke-linecap: butt}</style>
 </defs>
 <g id="figure_1">
  <g id="patch_1">
   <path d="M 0 231.84
L 775.44 231.84
L 775.44 0
L 0 0
L 0 231.84
z
" style="fill: none"/>
  </g>
  <g id="axes_1">
   <g id="patch_2">
    <path d="M 25.32 42.617246
L 98.622754 115.92
L 25.32 189.222754
z
" clip-path="url(#p37f0884e0f)"/>
   </g>
   <g id="patch_3">
    <path d="M 206.52 42.617246
L 133.217246 115.92
L 206.52 189.222754
z
" clip-path="url(#p37f0884e0f)"/>
   </g>
   <g id="patch_4">
    <path d="M 189.222754 25.32
L 115.92 98.622754
L 42.617246 25.32
z
" clip-path="url(#p37f0884e0f)"/>
   </g>
   <g id="patch_5">
    <path d="M 189.222754 206.52
L 115.92 133.217246
L 42.617246 206.52
z
" clip-path="url(#p37f0884e0f)"/>
   </g>
   <g id="patch_6">
    <path d="M 13.089 119.742187
L 37.551 119.742187
Q 38.315438 119.742187 38.315438 118.97775
L 38.315438 115.92
Q 38.315438 115.155562 37.551 115.155562
L 13.089 115.155562
Q 12.324563 115.155562 12.324563 115.92
L 12.324563 118.97775
Q 12.324563 119.742187 13.089 119.742187
z
" clip-path="url(#p37f0884e0f)" style="fill: #808080; stroke: #808080; stroke-linejoin: miter"/>
   </g>
   <g id="patch_7">
    <path d="M 194.289 119.742187
L 218.751 119.742187
Q 219.515438 119.742187 219.515438 118.97775
L 219.515438 115.92
Q 219.515438 115.155562 218.751 115.155562
L 194.289 115.155562
Q 193.524563 115.155562 193.524563 115.92
L 193.524563 118.97775
Q 193.524563 119.742187 194.289 119.742187
z
" clip-path="url(#p37f0884e0f)" style="fill: #808080; stroke: #808080; stroke-linejoin: miter"/>
   </g>
   <g id="patch_8">
    <path d="M 375.489 119.742187
L 399.951 119.742187
Q 400.715438 119.742187 400.715438 118.97775
L 400.715438 115.92
Q 400.715438 115.155562 399.951 115.155562
L 375.489 115.155562
Q 374.724563 115.155562 374.724563 115.92
L 374.724563 118.97775
Q 374.724563 119.742187 375.489 119.742187
z
" clip-path="url(#p37f0884e0f)" style="fill: #808080; stroke: #808080; stroke-linejoin: miter"/>
   </g>
   <g id="patch_9">
    <path d="M 556.689 119.742187
L 581.151 119.742187
Q 581.915438 119.742187 581.915438 118.97775
L 581.915438 115.92
Q 581.915438 115.155562 581.151 115.155562
L 556.689 115.155562
Q 555.924562 115.155562 555.924562 115.92
L 555.924562 118.97775
Q 555.924562 119.742187 556.689 119.742187
z
" clip-path="url(#p37f0884e0f)" style="fill: #808080; stroke: #808080; stroke-linejoin: miter"/>
   </g>
   <g id="patch_10">
    <path d="M 737.889 119.742187
L 762.351 119.742187
Q 763.115438 119.742187 763.115438 118.97775
L 763.115438 115.92
Q 763.115438 115.155562 762.351 115.155562
L 737.889 115.155562
Q 737.124563 115.155562 737.124563 115.92
L 737.124563 118.97775
Q 737.124563 119.742187 737.889 119.742187
z
" clip-path="url(#p37f0884e0f)" style="fill: #808080; stroke: #808080; stroke-linejoin: miter"/>
   </g>
   <g id="patch_11">
    <path d="M 114.391125 219.515437
L 117.448875 219.515437
Q 118.213313 219.515437 118.213313 218.751
L 118.213313 194.289
Q 118.213313 193.524563 117.448875 193.524563
L 114.391125 193.524563
Q 113.626688 193.524563 113.626688 194.289
L 113.626688 218.751
Q 113.626688 219.515437 114.391125 219.515437
z
" clip-path="url(#p37f0884e0f)" style="fill: #808080; stroke: #808080; stroke-linejoin: miter"/>
   </g>
   <g id="patch_12">
    <path d="M 114.391125 38.315437
L 117.448875 38.315437
Q 118.213313 38.315437 118.213313 37.551
L 118.213313 13.089
Q 118.213313 12.324562 117.448875 12.324562
L 114.391125 12.324562
Q 113.626688 12.324562 113.626688 13.089
L 113.626688 37.551
Q 113.626688 38.315437 114.391125 38.315437
z
" clip-path="url(#p37f0884e0f)" style="fill: #808080; stroke: #808080; stroke-linejoin: miter"/>
   </g>
   <g id="patch_13">
    <path d="M 295.591125 219.515437
L 298.648875 219.515437
Q 299.413313 219.515437 299.413313 218.751
L 299.413313 194.289
Q 299.413313 193.524563 298.648875 193.524563
L 295.591125 193.524563
Q 294.826687 193.524563 294.826687 194.289
L 294.826687 218.751
Q 294.826687 219.515437 295.591125 219.515437
z
" clip-path="url(#p37f0884e0f)" style="fill: #808080; stroke: #808080; stroke-linejoin: miter"/>
   </g>
   <g id="patch_14">
    <path d="M 295.591125 38.315437
L 298.648875 38.315437
Q 299.413313 38.315437 299.413313 37.551
L 299.413313 13.089
Q 299.413313 12.324562 298.648875 12.324562
L 295.591125 12.324562
Q 294.826687 12.324562 294.826687 13.089
L 294.826687 37.551
Q 294.826687 38.315437 295.591125 38.315437
z
" clip-path="url(#p37f0884e0f)" style="fill: #808080; stroke: #808080; stroke-linejoin: miter"/>
   </g>
   <g id="patch_15">
    <path d="M 476.791125 219.515437
L 479.848875 219.515437
Q 480.613313 219.515437 480.613313 218.751
L 480.613313 194.289
Q 480.613313 193.524563 479.848875 193.524563
L 476.791125 193.524563
Q 476.026687 193.524563 476.026687 194.289
L 476.026687 218.751
Q 476.026687 219.515437 476.791125 219.515437
z
" clip-path="url(#p37f0884e0f)" style="fill: #808080; stroke: #808080; stroke-linejoin: miter"/>
   </g>
   <g id="patch_16">
    <path d="M 476.791125 38.315437
L 479.848875 38.315437
Q 480.613313 38.315437 480.613313 37.551
L 480.613313 13.089
Q 480.613313 12.324562 479.848875 12.324562
L 476.791125 12.324562
Q 476.026687 12.324562 476.026687 13.089
L 476.026687 37.551
Q 476.026687 38.315437 476.791125 38.315437
z
" clip-path="url(#p37f0884e0f)" style="fill: #808080; stroke: #808080; stroke-linejoin: miter"/>
   </g>
   <g id="patch_17">
    <path d="M 657.991125 219.515437
L 661.048875 219.515437
Q 661.813313 219.515437 661.813313 218.751
L 661.813313 194.289
Q 661.813313 193.524563 661.048875 193.524563
L 657.991125 193.524563
Q 657.226688 193.524563 657.226688 194.289
L 657.226688 218.751
Q 657.226688 219.515437 657.991125 219.515437
z
" clip-path="url(#p37f0884e0f)" style="fill: #808080; stroke: #808080; stroke-linejoin: miter"/>
   </g>
   <g id="patch_18">
    <path d="M 657.991125 38.315437
L 661.048875 38.315437
Q 661.813313 38.315437 661.813313 37.551
L 661.813313 13.089
Q 661.813313 12.324562 661.048875 12.324562
L 657.991125 12.324562
Q 657.226688 12.324562 657.226688 13.089
L 657.226688 37.551
Q 657.226688 38.315437 657.991125 38.315437
z
" clip-path="url(#p37f0884e0f)" style="fill: #808080; stroke: #808080; stroke-linejoin: miter"/>
   </g>
   <g id="text_1">
    <!-- W -->
    <g transform="translate(237.12 179.62815)scale(2 -2)">
     <defs>
      <path id="SourceCodePro-Semibold-57" d="M 640 0
L 45 4186
L 838 4186
L 1050 1760
Q 1069 1498 1081 1274
Q 1094 1050 1107 755
L 1126 755
Q 1178 1050 1226 1274
Q 1274 1498 1331 1760
L 1677 3117
L 2234 3117
L 2560 1760
Q 2624 1498 2669 1277
Q 2714 1056 2765 755
L 2790 755
Q 2803 1056 2812 1277
Q 2822 1498 2842 1760
L 3046 4186
L 3795 4186
L 3232 0
L 2394 0
L 2067 1485
Q 2022 1683 1987 1878
Q 1952 2074 1933 2266
L 1914 2266
Q 1882 2074 1856 1878
Q 1830 1683 1786 1485
L 1466 0
L 640 0
z
" transform="scale(0.015625)"/>
     </defs>
     <use xlink:href="#SourceCodePro-Semibold-57"/>
    </g>
   </g>
   <g id="text_2">
    <!-- R -->
    <g transform="translate(418.32 179.62815)scale(2 -2)">
     <defs>
      <path id="SourceCodePro-Semibold-52" d="M 538 0
L 538 4186
L 1933 4186
Q 2259 4186 2540 4122
Q 2822 4058 3030 3914
Q 3238 3770 3356 3533
Q 3475 3296 3475 2944
Q 3475 2464 3248 2169
Q 3021 1875 2643 1747
L 3642 0
L 2803 0
L 1907 1638
L 1280 1638
L 1280 0
L 538 0
z
M 1280 2227
L 1856 2227
Q 2291 2227 2518 2406
Q 2746 2586 2746 2944
Q 2746 3309 2518 3449
Q 2291 3590 1856 3590
L 1280 3590
L 1280 2227
z
" transform="scale(0.015625)"/>
     </defs>
     <use xlink:href="#SourceCodePro-Semibold-52"/>
    </g>
   </g>
   <g id="text_3">
    <!-- F -->
    <g transform="translate(599.52 179.62815)scale(2 -2)">
     <defs>
      <path id="SourceCodePro-Semibold-46" d="M 762 0
L 762 4186
L 3437 4186
L 3437 3558
L 1504 3558
L 1504 2374
L 3149 2374
L 3149 1747
L 1504 1747
L 1504 0
L 762 0
z
" transform="scale(0.015625)"/>
     </defs>
     <use xlink:href="#SourceCodePro-Semibold-46"/>
    </g>
   </g>
  </g>
 </g>
 <defs>
  <clipPath id="p37f0884e0f">
   <rect x="7.2" y="7.2" width="761.04" height="217.44"/>
  </clipPath>
 </defs>
</svg>
